<?xml version="1.0" standalone="no"?>
<!DOCTYPE svg PUBLIC "-//W3C//DTD SVG 20010904//EN"
 "http://www.w3.org/TR/2001/REC-SVG-20010904/DTD/svg10.dtd">
<svg version="1.0" xmlns="http://www.w3.org/2000/svg"
 width="512.000000pt" height="512.000000pt" viewBox="0 0 512.000000 512.000000"
 preserveAspectRatio="xMidYMid meet">

<g transform="translate(0.000000,512.000000) scale(0.100000,-0.100000)"
fill="#000000" stroke="none">
<path d="M1181 4473 c47 -49 187 -194 310 -323 123 -129 226 -235 230 -235 4
0 154 145 333 323 l326 322 -643 0 -642 0 86 -87z"/>
<path d="M3067 4238 c178 -178 328 -323 332 -323 4 0 107 106 230 235 123 129
263 274 310 323 l86 87 -642 0 -642 0 326 -322z"/>
<path d="M828 4458 c-190 -166 -614 -546 -627 -561 -12 -16 35 -17 664 -17
l677 0 -63 68 c-211 226 -554 582 -561 582 -4 0 -45 -33 -90 -72z"/>
<path d="M2230 4205 l-325 -325 655 0 655 0 -325 325 c-179 179 -327 325 -330
325 -3 0 -151 -146 -330 -325z"/>
<path d="M3949 4273 c-135 -142 -274 -288 -308 -325 l-63 -68 678 0 678 0 -30
31 c-51 54 -684 614 -697 617 -7 1 -123 -113 -258 -255z"/>
<path d="M162 3701 c13 -30 2120 -2893 2125 -2888 1 2 -138 659 -309 1460
l-312 1457 -758 0 -758 0 12 -29z"/>
<path d="M1820 3718 c0 -7 151 -715 334 -1573 262 -1221 338 -1562 352 -1572
23 -17 85 -17 108 0 15 11 87 334 352 1573 183 857 334 1565 334 1572 0 9
-155 12 -740 12 -585 0 -740 -3 -740 -12z"/>
<path d="M3143 2273 c-172 -802 -311 -1459 -309 -1460 5 -5 2111 2859 2124
2888 l12 29 -758 0 -758 0 -311 -1457z"/>
</g>
</svg>
